<svg width="37" height="36" viewBox="0 0 37 36" fill="none" xmlns="http://www.w3.org/2000/svg">
<path d="M34.98 0H36.94L27.15 17.72L36.79 35.15H34.84L25.19 17.72L34.98 0Z" fill="white"/>
<path d="M31.05 0H33L23.21 17.72L32.86 35.15H30.91L21.26 17.72L31.05 0Z" fill="white"/>
<path d="M27.12 0H29.07L19.28 17.72L28.93 35.15H26.97L17.33 17.72L27.12 0Z" fill="white"/>
<path d="M23.19 0H25.14L15.33 17.72L25 35.15H23.04L13.38 17.72L23.19 0Z" fill="white"/>
<path d="M12.3 0H10.54V35.15H12.3V0Z" fill="white"/>
<path d="M8.79002 0H7.03003V35.15H8.79002V0Z" fill="white"/>
<path d="M5.27001 0H3.51001V35.15H5.27001V0Z" fill="white"/>
<path d="M1.75 0H0V35.15H1.75V0Z" fill="white"/>
</svg>
