<svg width="40" height="46" viewBox="0 0 40 46" fill="none" xmlns="http://www.w3.org/2000/svg">
  <!-- Monoton S centerline strokes generated from filled paths using paper.js offset -->

  <!-- outer stroke -->
  <path id="stroke-outer" d="M21.5244,26.8359c-5.53131,-0.00064 -11.75758,0.14182 -16.06426,-3.99209c-6.02261,-5.781 -3.63195,-15.26571 3.3411,-18.92174c6.93138,-3.63418 16.4059,-3.08507 23.44935,-0.10228c2.0739,0.87826 3.65893,2.73786 5.77654,3.50477c0.28991,0.10499 0.49815,-0.65664 0.28544,-0.87985c-1.40219,-1.47143 -4.89087,-3.10997 -6.73983,-3.80538c-6.7891,-2.55343 -15.79589,-3.0729 -22.45272,0.19458c-9.43464,4.63095 -10.87331,17.58184 -1.03223,22.7875c4.74818,2.51165 9.755,1.63725 14.8369,2.07981c2.16483,0.18852 6.68482,0.81991 5.89814,4.27266c-1.11014,4.87244 -11.19486,3.76709 -14.47015,3.13752c-2.1562,-0.41446 -3.96667,-2.14995 -6.1531,-2.35124c-0.41457,-0.03817 -0.10129,0.98739 0.2401,1.22566c3.80349,2.65456 10.72977,3.00082 15.13244,2.13679c1.37707,-0.27025 3.03865,-0.27155 4.00901,-1.28533c5.78346,-6.04225 -1.8654,-7.69689 -6.05671,-8.00137" stroke="#e8e8e8" stroke-width="3" stroke-linecap="round" fill="none"/>

  <!-- middle stroke -->
  <path id="stroke-middle" d="M18.0732,25.4766c3.9982,0.00054 16.92892,0.5297 12.34416,8.31938c-3.21772,5.46703 -13.59167,4.39223 -18.55652,2.91337c-0.98482,-0.29334 -7.49962,-3.02665 -7.79462,-2.84842c-1.33011,0.80361 -0.98105,3.24198 -0.32497,4.65071c1.12519,2.41599 8.51124,3.71597 10.75081,4.05199c8.09103,1.21397 21.93202,-0.47952 21.72481,-11.47132c-0.23183,-12.29763 -13.85996,-9.60316 -21.70915,-11.06091c-3.65965,-0.67967 -7.79276,-3.8385 -5.33106,-8.06042c3.18879,-5.46889 13.60671,-4.38005 18.55137,-2.90944c0.97958,0.29134 7.51568,3.0252 7.79585,2.85699c1.33266,-0.80012 0.99381,-3.24086 0.3395,-4.65084c-0.4856,-1.04643 -6.12898,-2.99837 -7.01322,-3.25281c-6.77503,-1.94947 -16.74899,-2.21331 -22.20848,3.07599c-5.75241,5.57309 -3.30018,14.23669 3.76411,17.1585c2.72536,1.12722 4.80205,1.03536 7.66742,1.22722" stroke="#e8e8e8" stroke-width="3" stroke-linecap="round" fill="none"/>

  <!-- inner stroke -->
  <path id="stroke-inner" d="M18.0732,21.1172c4.43226,0.00056 9.34371,-0.25803 13.20628,2.37241c4.46836,3.04298 5.55146,9.49987 2.00386,13.68345c-5.07801,5.98836 -15.45337,5.76992 -22.3091,3.79641c-1.61241,-0.46415 -9.47926,-5.09166 -10.78654,-3.92316c-4.25218,3.80078 6.01237,7.74048 7.44803,8.26362c7.91002,2.8823 18.64186,3.15732 25.93714,-1.5824c8.39401,-5.45357 9.54142,-17.73786 1.36862,-24.02293c-4.28238,-3.29325 -9.56067,-3.68663 -14.73198,-3.7671c-0.31397,-0.00489 -8.2865,0.60351 -7.28523,-1.78248c0.56822,-1.35404 4.26945,-1.62084 4.90773,-1.67883c3.6233,-0.3292 6.61994,0.41347 10.10813,1.09252c1.52193,0.29627 3.5285,1.80546 4.60072,0.68546c1.07375,-1.12159 0.06062,-3.33736 -0.87733,-4.57476c-0.79372,-1.04713 -2.41388,-1.05577 -3.67365,-1.42921c-4.89876,-1.45216 -15.34397,-2.56384 -18.88458,2.40773c-3.51665,4.93792 0.3803,9.0402 5.08413,10.14859c1.2641,0.29787 2.58918,0.20713 3.88377,0.31069" stroke="#e8e8e8" stroke-width="3" stroke-linecap="round" fill="none"/>
</svg>
