<svg width="40" height="46" viewBox="0 0 40 46" fill="none" xmlns="http://www.w3.org/2000/svg">
<path d="M21.5244 28.3359H18.0732C12.4626 28.3359 8.13346 27.0645 5.08594 24.5215C2.03841 21.9583 0.514648 18.5374 0.514648 14.2588C0.514648 12.3011 0.948568 10.4645 1.81641 8.74902C2.68424 7.03353 3.92546 5.52995 5.54004 4.23828C7.1748 2.92643 9.25358 1.89714 11.7764 1.15039C14.2992 0.383464 17.1045 0 20.1924 0C24.0876 0 27.7305 0.595378 31.1211 1.78613C34.5117 2.95671 37.3372 4.60156 39.5977 6.7207L37.8418 8.02246C35.7832 6.16569 33.21 4.73275 30.1221 3.72363C27.0342 2.69434 23.7243 2.17969 20.1924 2.17969C14.7432 2.17969 10.4645 3.33008 7.35645 5.63086C4.24837 7.93164 2.69434 10.8076 2.69434 14.2588C2.69434 17.9118 4.02637 20.8079 6.69043 22.9473C9.35449 25.0866 13.1488 26.1562 18.0732 26.1562H21.4033C27.3773 26.1562 30.3643 27.9424 30.3643 31.5146C30.3643 33.1292 29.446 34.4613 27.6094 35.5107C25.793 36.54 23.0583 37.0547 19.4053 37.0547C16.8421 37.0547 14.4606 36.762 12.2607 36.1768C10.0609 35.5713 8.24447 34.7135 6.81152 33.6035L8.53711 32.2715C11.0599 34.0072 14.6826 34.875 19.4053 34.875C22.4326 34.875 24.6527 34.5622 26.0654 33.9365C27.4782 33.3109 28.1846 32.5036 28.1846 31.5146C28.1846 30.3643 27.6901 29.5469 26.7012 29.0625C25.7122 28.5781 23.9867 28.3359 21.5244 28.3359Z" fill="white"/>
<path d="M18.0732 23.9766H21.5244C25.1774 23.9766 27.9222 24.6325 29.7588 25.9443C31.6156 27.236 32.5439 29.0928 32.5439 31.5146C32.5439 33.7549 31.4137 35.6016 29.1533 37.0547C26.9131 38.5078 23.6637 39.2344 19.4053 39.2344C16.5192 39.2344 13.8249 38.861 11.3223 38.1143C8.81966 37.3675 6.74089 36.318 5.08594 34.9658L3.39062 36.3281C5.2474 37.9427 7.56836 39.194 10.3535 40.082C13.1589 40.9701 16.1761 41.4141 19.4053 41.4141C24.249 41.4141 28.013 40.4756 30.6973 38.5986C33.3815 36.7015 34.7236 34.3402 34.7236 31.5146C34.7236 28.4873 33.5732 26.1159 31.2725 24.4004C28.9919 22.6647 25.7021 21.7969 21.4033 21.7969H18.0732C14.4202 21.7969 11.6654 21.151 9.80859 19.8594C7.97201 18.5475 7.05371 16.6807 7.05371 14.2588C7.05371 12.0186 8.17383 10.1719 10.4141 8.71875C12.6745 7.26562 15.9339 6.53906 20.1924 6.53906C23.0785 6.53906 25.7728 6.91243 28.2754 7.65918C30.778 8.40592 32.8568 9.4554 34.5117 10.8076L36.207 9.44531C34.3503 7.83073 32.0192 6.57943 29.2139 5.69141C26.4287 4.80339 23.4215 4.35938 20.1924 4.35938C15.3486 4.35938 11.5846 5.30794 8.90039 7.20508C6.21615 9.08203 4.87402 11.4333 4.87402 14.2588C4.87402 17.2861 6.01432 19.6676 8.29492 21.4033C10.5755 23.1188 13.835 23.9766 18.0732 23.9766Z" fill="#5814F7"/>
<path d="M18.0732 19.6172H21.5244C26.4489 19.6172 30.2432 20.6868 32.9072 22.8262C35.5713 24.9655 36.9033 27.8617 36.9033 31.5146C36.9033 34.9658 35.3493 37.8418 32.2412 40.1426C29.1331 42.4434 24.8545 43.5938 19.4053 43.5938C15.8734 43.5938 12.5635 43.0892 9.47559 42.0801C6.3877 41.0508 3.81445 39.6077 1.75586 37.751L0 39.0527C2.26042 41.1719 5.08594 42.8268 8.47656 44.0176C11.8672 45.1882 15.5101 45.7734 19.4053 45.7734C22.4932 45.7734 25.2985 45.4001 27.8213 44.6533C30.3441 43.8864 32.4128 42.8571 34.0273 41.5654C35.6621 40.2536 36.9134 38.7399 37.7812 37.0244C38.6491 35.3089 39.083 33.4723 39.083 31.5146C39.083 27.236 37.5592 23.8252 34.5117 21.2822C31.4642 18.7191 27.1351 17.4375 21.5244 17.4375H18.0732C15.611 17.4375 13.8854 17.1953 12.8965 16.7109C11.9076 16.2266 11.4131 15.4092 11.4131 14.2588C11.4131 13.2699 12.1195 12.4626 13.5322 11.8369C14.945 11.2113 17.165 10.8984 20.1924 10.8984C24.915 10.8984 28.5378 11.7663 31.0605 13.502L32.7861 12.1699C31.3532 11.0599 29.5368 10.2122 27.3369 9.62695C25.137 9.02148 22.7555 8.71875 20.1924 8.71875C16.5394 8.71875 13.7946 9.24349 11.958 10.293C10.1416 11.3223 9.2334 12.6442 9.2334 14.2588C9.2334 17.8311 12.18 19.6172 18.0732 19.6172Z" fill="white"/>
</svg>
