<svg width="35" height="36" viewBox="0 0 35 36" fill="none" xmlns="http://www.w3.org/2000/svg">
<path d="M17.7388 12.1331L18.9405 14.3181V0H17.7388V12.1331Z" fill="white"/>
<path d="M20.1354 16.4347L21.3371 18.4694V0H20.1354V16.4347Z" fill="white"/>
<path d="M6.00171 11.8669L4.80001 9.68193V24H6.00171V11.8669Z" fill="white"/>
<path d="M3.5983 24V7.56528L3.00086 6.46599L2.40342 5.3667V24H3.5983Z" fill="white"/>
<path d="M4.21963 0H2.81992L16.7215 24H18.1212L4.21963 0Z" fill="white"/>
<path d="M7.06686 0H5.65349L19.5209 24H20.9548L7.06686 0Z" fill="white"/>
<path d="M9.86629 0H8.46657L22.3203 24H23.7405V0H22.5388V21.9175L9.86629 0Z" fill="white"/>
<path d="M1.20171 24V2.06202L13.9016 24H15.2876L1.43386 0H0V24H1.20171Z" fill="white"/>
</svg>
