<svg width="222" height="63" viewBox="0 0 222 63" fill="none" xmlns="http://www.w3.org/2000/svg">
<path d="M203.171 47.744C199.823 47.744 196.826 47.062 194.181 45.698C191.577 44.2927 189.51 42.3707 187.981 39.932C186.493 37.4933 185.749 34.7447 185.749 31.686C185.749 28.6273 186.493 25.8993 187.981 23.502C189.469 21.1047 191.515 19.224 194.119 17.86C196.764 16.4547 199.761 15.752 203.109 15.752C206.457 15.752 209.433 16.4547 212.037 17.86C214.641 19.224 216.687 21.1047 218.175 23.502C219.704 25.8993 220.469 28.6273 220.469 31.686C220.469 34.7447 219.725 37.4933 218.237 39.932C216.749 42.3707 214.703 44.2927 212.099 45.698C209.495 47.062 206.519 47.744 203.171 47.744ZM203.109 37.08C204.142 37.08 205.031 36.8733 205.775 36.46C206.56 36.0053 207.16 35.3853 207.573 34.6C207.986 33.7733 208.193 32.8227 208.193 31.748C208.193 30.6733 207.966 29.7433 207.511 28.958C207.098 28.1313 206.519 27.5113 205.775 27.098C205.031 26.6433 204.142 26.416 203.109 26.416C202.117 26.416 201.228 26.6433 200.443 27.098C199.699 27.5527 199.1 28.1933 198.645 29.02C198.232 29.8053 198.025 30.7353 198.025 31.81C198.025 32.8433 198.232 33.7733 198.645 34.6C199.1 35.3853 199.699 36.0053 200.443 36.46C201.228 36.8733 202.117 37.08 203.109 37.08Z" fill="white"/>
<path d="M163.672 47V16.496H175.824V47H163.672ZM169.748 13.644C167.97 13.644 166.482 13.0446 165.284 11.846C164.126 10.606 163.548 9.09731 163.548 7.31997C163.548 5.54264 164.126 4.05464 165.284 2.85597C166.482 1.61597 167.97 0.995972 169.748 0.995972C171.566 0.995972 173.054 1.61597 174.212 2.85597C175.369 4.05464 175.948 5.54264 175.948 7.31997C175.948 9.09731 175.369 10.606 174.212 11.846C173.054 13.0446 171.566 13.644 169.748 13.644Z" fill="white"/>
<path d="M142.313 47L133.819 30.942L142.251 16.496H155.333L144.421 32.802L144.731 28.834L155.953 47H142.313ZM122.659 47V1.61597H134.811V47H122.659Z" fill="white"/>
<path d="M99.1126 47V29.888C99.1126 28.6893 98.7612 27.78 98.0586 27.16C97.3972 26.4986 96.5499 26.168 95.5166 26.168C94.8139 26.168 94.1732 26.3126 93.5946 26.602C93.0572 26.8913 92.6232 27.3253 92.2926 27.904C92.0032 28.4413 91.8586 29.1026 91.8586 29.888L87.1466 27.78C87.1466 25.3 87.6839 23.1713 88.7586 21.394C89.8746 19.6166 91.3832 18.2526 93.2846 17.302C95.2272 16.3513 97.4179 15.876 99.8566 15.876C102.047 15.876 103.99 16.372 105.685 17.364C107.421 18.3146 108.785 19.6373 109.777 21.332C110.769 22.9853 111.265 24.9073 111.265 27.098V47H99.1126ZM79.7066 47V16.496H91.8586V47H79.7066Z" fill="white"/>
<path d="M49.1338 47L37.1058 16.496H50.0018L57.0698 42.474H51.7378L58.6818 16.496H71.5158L59.5498 47H49.1338ZM42.4998 60.02L51.3658 39.994L59.5498 47L54.4038 60.02H42.4998Z" fill="white"/>
<path d="M16.066 47.93C14.1647 47.93 12.2633 47.682 10.362 47.186C8.46067 46.69 6.68334 46.008 5.03 45.14C3.418 44.272 2.054 43.28 0.938004 42.164L7.324 35.592C8.316 36.584 9.494 37.3693 10.858 37.948C12.2633 38.5267 13.7307 38.816 15.26 38.816C15.9627 38.816 16.5 38.7334 16.872 38.568C17.2853 38.3614 17.492 38.0927 17.492 37.762C17.492 37.1834 17.1407 36.7493 16.438 36.46C15.7767 36.1707 14.9087 35.902 13.834 35.654C12.8007 35.406 11.6847 35.096 10.486 34.724C9.32867 34.3107 8.21267 33.7734 7.138 33.112C6.06334 32.4093 5.19534 31.4587 4.534 30.26C3.87267 29.02 3.542 27.4494 3.542 25.548C3.542 23.6054 4.07934 21.89 5.154 20.402C6.27 18.8727 7.82 17.674 9.804 16.806C11.8293 15.8967 14.1647 15.442 16.81 15.442C19.4967 15.442 22.1007 15.8967 24.622 16.806C27.1433 17.7153 29.148 19.0793 30.636 20.898L24.188 27.47C23.1547 26.3127 22.018 25.548 20.778 25.176C19.538 24.7627 18.5047 24.556 17.678 24.556C16.8927 24.556 16.3347 24.68 16.004 24.928C15.7147 25.1347 15.57 25.4033 15.57 25.734C15.57 26.1887 15.9007 26.5607 16.562 26.85C17.2233 27.1393 18.0707 27.408 19.104 27.656C20.1787 27.904 21.2947 28.2347 22.452 28.648C23.6093 29.0613 24.7047 29.64 25.738 30.384C26.8127 31.128 27.6807 32.12 28.342 33.36C29.0033 34.5587 29.334 36.1293 29.334 38.072C29.334 41.0893 28.1353 43.4867 25.738 45.264C23.3407 47.0414 20.1167 47.93 16.066 47.93Z" fill="white" fill-opacity="0.1"/>
<path d="M203.109 16.252C206.526 16.2521 209.584 16.9696 212.268 18.4171C214.946 19.8198 217.06 21.7593 218.597 24.2335L218.885 24.7032C220.276 27.0712 220.969 29.7362 220.969 32.6856C220.969 35.8294 220.203 38.6698 218.664 41.1924C217.128 43.7093 215.016 45.692 212.337 47.1378L212.331 47.1407C209.646 48.5471 206.588 49.2442 203.171 49.2442C199.753 49.2442 196.677 48.5474 193.952 47.1426L193.943 47.1378C191.265 45.6926 189.134 43.7113 187.557 41.1973L187.554 41.1924V41.1915C186.015 38.669 185.249 35.829 185.249 32.6856C185.249 29.5421 186.015 26.7214 187.556 24.2383C189.094 21.762 191.207 19.8206 193.887 18.4171C196.612 16.9698 199.69 16.252 203.109 16.252ZM203.109 27.9161C202.201 27.9161 201.404 28.122 200.704 28.5245L200.461 28.6846C199.909 29.0749 199.45 29.5937 199.087 30.252C198.718 30.9518 198.525 31.7993 198.525 32.8096C198.525 33.767 198.715 34.6133 199.084 35.3585C199.495 36.066 200.031 36.6185 200.692 37.0255C201.394 37.3912 202.196 37.5801 203.109 37.5801C204.076 37.5801 204.877 37.3866 205.532 37.0225C206.231 36.6158 206.759 36.068 207.126 35.3741C207.499 34.6278 207.693 33.7569 207.693 32.7481C207.693 31.7451 207.481 30.9043 207.078 30.2081L207.07 30.1954L207.063 30.1817C206.691 29.4371 206.18 28.8954 205.532 28.5352L205.523 28.5303L205.514 28.5245C204.863 28.1261 204.068 27.9161 203.109 27.9161Z" fill="#1E1E1E" stroke="white"/>
<path d="M176.324 16.996V48.4999H163.172V16.996H176.324ZM169.748 1.49597C171.691 1.49602 173.313 2.16372 174.571 3.50867C175.825 4.80718 176.448 6.42281 176.448 8.32019C176.448 10.2174 175.825 11.8501 174.577 13.1874L174.571 13.1932C173.31 14.4988 171.688 15.1444 169.748 15.1444C167.845 15.1444 166.228 14.4965 164.93 13.1991L164.924 13.1932L164.918 13.1874C163.67 11.8501 163.048 10.2174 163.048 8.32019C163.048 6.42289 163.67 4.80715 164.924 3.50867H164.924C166.221 2.16799 167.84 1.49597 169.748 1.49597Z" fill="#1E1E1E" stroke="white"/>
<path d="M135.311 2.11597V28.3933L141.819 17.2439L141.963 16.9958H156.269L155.748 17.7742L146.451 31.6667L156.378 47.7371L156.849 48.4998H142.011L141.87 48.2341L135.311 35.8328V48.4998H122.159V2.11597H135.311Z" fill="#1E1E1E" stroke="white"/>
<path d="M99.857 16.376C102.126 16.376 104.157 16.8908 105.937 17.9326H105.936C107.745 18.926 109.173 20.3094 110.209 22.0791H110.208C111.251 23.8192 111.764 25.8309 111.764 28.0977V48.5H98.6128V30.8877C98.6128 29.79 98.2945 29.0351 97.7281 28.5352L97.7046 28.5137C97.1473 27.9565 96.4321 27.668 95.5162 27.668C94.8882 27.668 94.3277 27.7952 93.8267 28.0439C93.3813 28.2849 93.0148 28.6489 92.7271 29.1523C92.4904 29.5972 92.359 30.1682 92.3589 30.8877V48.5H79.2066V16.9961H92.3589V18.2344C92.5871 18.1016 92.821 17.9745 93.0611 17.8545L93.065 17.8525C95.0843 16.8644 97.352 16.376 99.857 16.376Z" fill="#1E1E1E" stroke="white"/>
<path d="M50.3841 16.996L50.4847 17.3651L54.3753 31.6678L58.1986 17.3671L58.2982 16.996H72.2494L71.9808 17.6786L60.1439 47.8514L60.1458 47.8524L60.015 48.1835L59.891 48.4999H59.89L54.8685 61.204L54.7435 61.5204H41.7318L42.0423 60.8173L48.182 46.9501L36.641 17.6796L36.3714 16.996H50.3841Z" fill="#1E1E1E" stroke="white"/>
<path d="M4.34375 20.8164C3.13862 22.4851 2.54202 24.4081 2.54199 26.5479C2.54199 28.5579 2.89045 30.3036 3.65137 31.7305L3.65527 31.7373L3.6582 31.7432L4.53418 31.2598C3.87288 30.0198 3.54199 28.4491 3.54199 26.5479C3.54202 24.6053 4.0797 22.8903 5.1543 21.4023C6.27027 19.873 7.81977 18.6737 9.80371 17.8057C11.8289 16.8964 14.1644 16.4424 16.8096 16.4424L17.3125 16.4473C19.8216 16.5005 22.2582 16.9531 24.6221 17.8057L24.9609 16.8652C22.3306 15.9166 19.6115 15.4424 16.8096 15.4424C14.0536 15.4424 11.5775 15.9153 9.40332 16.8896C7.28096 17.8182 5.58128 19.1207 4.34668 20.8125L4.34375 20.8164Z" fill="#D9D9D9"/>
<path d="M29.3574 34.1426L29.2178 33.877L28.3418 34.3604L28.4619 34.5889C29.0433 35.7563 29.334 37.2509 29.334 39.0723L29.3203 39.6309C29.1798 42.3867 27.9855 44.5975 25.7383 46.2637L25.2793 46.5869C22.935 48.1491 19.8639 48.9296 16.0664 48.9297L15.3525 48.918C13.6891 48.8637 12.0258 48.6195 10.3623 48.1855L10.1094 49.1533C12.0904 49.6701 14.0771 49.9297 16.0664 49.9297C20.2558 49.9296 23.7123 49.011 26.334 47.0674C28.9888 45.099 30.3339 42.4019 30.334 39.0723C30.334 37.1551 30.03 35.4928 29.3574 34.1426Z" fill="#D9D9D9"/>
<path d="M30.023 22.523L24.1885 28.4698C23.1552 27.3125 22.0182 26.5478 20.7783 26.1758C19.5383 25.7625 18.5044 25.5557 17.6777 25.5557V26.5557C18.3531 26.5557 19.2718 26.7283 20.4619 27.125L20.4766 27.1299L20.4902 27.1338C21.4236 27.4138 22.3186 27.9716 23.1738 28.8516L24.1885 29.8662L24.9014 29.1699L30.7301 23.2302L30.023 22.523Z" fill="#D9D9D9"/>
<path d="M7.32422 36.5918C8.31622 37.5838 9.4944 38.3696 10.8584 38.9482C12.088 39.4545 13.365 39.7394 14.6895 39.8027L15.2598 39.8164V38.8164C13.8637 38.8164 12.5299 38.5533 11.249 38.0273C9.99655 37.496 8.92739 36.7809 8.03125 35.8847L7.76172 35.6162L7.309 35.1559L7.18457 35.2998L0.588593 42.0886L1.29605 42.796L7.32422 36.5918Z" fill="#D9D9D9"/>
</svg>
