<svg width="37" height="37" viewBox="0 0 37 37" fill="none" xmlns="http://www.w3.org/2000/svg">
<path d="M29.5 18.5C29.5 12.4249 24.5751 7.5 18.5 7.5C12.4249 7.5 7.5 12.4249 7.5 18.5C7.5 24.5751 12.4249 29.5 18.5 29.5V31C11.5964 31 6 25.4036 6 18.5C6 11.5964 11.5964 6 18.5 6C25.4036 6 31 11.5964 31 18.5C31 25.4036 25.4036 31 18.5 31V29.5C24.5751 29.5 29.5 24.5751 29.5 18.5Z" fill="white"/>
<path d="M32.5 18.5C32.5 10.768 26.232 4.5 18.5 4.5C10.768 4.5 4.5 10.768 4.5 18.5C4.5 26.232 10.768 32.5 18.5 32.5V34C9.93959 34 3 27.0604 3 18.5C3 9.93959 9.93959 3 18.5 3C27.0604 3 34 9.93959 34 18.5C34 27.0604 27.0604 34 18.5 34V32.5C26.232 32.5 32.5 26.232 32.5 18.5Z" fill="white"/>
<path d="M35.5 18.5C35.5 9.11116 27.8888 1.5 18.5 1.5C9.11116 1.5 1.5 9.11116 1.5 18.5C1.5 27.8888 9.11116 35.5 18.5 35.5V37C8.28273 37 0 28.7173 0 18.5C0 8.28273 8.28273 0 18.5 0C28.7173 0 37 8.28273 37 18.5C37 28.7173 28.7173 37 18.5 37V35.5C27.8888 35.5 35.5 27.8888 35.5 18.5Z" fill="white"/>
<path d="M26.5 18.5C26.5 14.0817 22.9183 10.5 18.5 10.5C14.0817 10.5 10.5 14.0817 10.5 18.5C10.5 22.9183 14.0817 26.5 18.5 26.5V28C13.2533 28 9 23.7467 9 18.5C9 13.2533 13.2533 9 18.5 9C23.7467 9 28 13.2533 28 18.5C28 23.7467 23.7467 28 18.5 28V26.5C22.9183 26.5 26.5 22.9183 26.5 18.5Z" fill="white"/>
</svg>
