<svg width="37" height="37" viewBox="0 0 37 37" fill="none" xmlns="http://www.w3.org/2000/svg">
<path d="M12.7148 12.7148C11.1289 14.3008 10.3359 16.2148 10.3359 18.457C10.3359 20.6992 11.1289 22.6133 12.7148 24.1992C14.3008 25.7852 16.2148 26.5781 18.457 26.5781C20.6992 26.5781 22.6133 25.7852 24.1992 24.1992C25.7852 22.6133 26.5781 20.6992 26.5781 18.457C26.5781 16.2148 25.7852 14.3008 24.1992 12.7148C22.6133 11.1289 20.6992 10.3359 18.457 10.3359C16.2148 10.3359 14.3008 11.1289 12.7148 12.7148ZM9.61816 22.1895C9.1123 21 8.85938 19.7559 8.85938 18.457C8.85938 17.1582 9.1123 15.9209 9.61816 14.7451C10.124 13.5557 10.8076 12.5303 11.6689 11.6689C12.5303 10.8076 13.5488 10.124 14.7246 9.61816C15.9141 9.1123 17.1582 8.85938 18.457 8.85938C19.7559 8.85938 20.9932 9.1123 22.1689 9.61816C23.3584 10.124 24.3838 10.8076 25.2451 11.6689C26.1064 12.5303 26.79 13.5557 27.2959 14.7451C27.8018 15.9209 28.0547 17.1582 28.0547 18.457C28.0547 19.7559 27.8018 21 27.2959 22.1895C26.79 23.3652 26.1064 24.3838 25.2451 25.2451C24.3838 26.1064 23.3584 26.79 22.1689 27.2959C20.9932 27.8018 19.7559 28.0547 18.457 28.0547C17.1582 28.0547 15.9141 27.8018 14.7246 27.2959C13.5488 26.79 12.5303 26.1064 11.6689 25.2451C10.8076 24.3838 10.124 23.3652 9.61816 22.1895ZM8.85938 12.8994C7.875 14.5947 7.38281 16.4473 7.38281 18.457C7.38281 20.4668 7.875 22.3193 8.85938 24.0146C9.85742 25.71 11.2041 27.0566 12.8994 28.0547C14.5947 29.0391 16.4473 29.5312 18.457 29.5312C20.4668 29.5312 22.3193 29.0391 24.0146 28.0547C25.71 27.0566 27.0498 25.71 28.0342 24.0146C29.0322 22.3193 29.5312 20.4668 29.5312 18.457C29.5312 16.4473 29.0322 14.5947 28.0342 12.8994C27.0498 11.2041 25.71 9.86426 24.0146 8.87988C22.3193 7.88184 20.4668 7.38281 18.457 7.38281C16.4473 7.38281 14.5947 7.88184 12.8994 8.87988C11.2041 9.86426 9.85742 11.2041 8.85938 12.8994ZM7.58789 24.7529C6.4668 22.8252 5.90625 20.7266 5.90625 18.457C5.90625 16.1875 6.4668 14.0889 7.58789 12.1611C8.70898 10.2334 10.2334 8.70898 12.1611 7.58789C14.0889 6.4668 16.1875 5.90625 18.457 5.90625C20.7266 5.90625 22.8252 6.4668 24.7529 7.58789C26.6807 8.70898 28.2051 10.2334 29.3262 12.1611C30.4473 14.0889 31.0078 16.1875 31.0078 18.457C31.0078 20.7266 30.4473 22.8252 29.3262 24.7529C28.2051 26.6807 26.6807 28.2051 24.7529 29.3262C22.8252 30.4473 20.7266 31.0078 18.457 31.0078C16.1875 31.0078 14.0889 30.4473 12.1611 29.3262C10.2334 28.2051 8.70898 26.6807 7.58789 24.7529ZM5.53711 13.002C4.79883 14.7383 4.42969 16.5566 4.42969 18.457C4.42969 20.3574 4.79883 22.1758 5.53711 23.9121C6.27539 25.6484 7.2666 27.1455 8.51074 28.4033C9.76855 29.6475 11.2656 30.6387 13.002 31.377C14.7383 32.1152 16.5566 32.4844 18.457 32.4844C20.3574 32.4844 22.1758 32.1152 23.9121 31.377C25.6484 30.6387 27.1387 29.6475 28.3828 28.4033C29.6406 27.1455 30.6387 25.6484 31.377 23.9121C32.1152 22.1758 32.4844 20.3574 32.4844 18.457C32.4844 16.5566 32.1152 14.7383 31.377 13.002C30.6387 11.2656 29.6406 9.77539 28.3828 8.53125C27.1387 7.27344 25.6484 6.27539 23.9121 5.53711C22.1758 4.79883 20.3574 4.42969 18.457 4.42969C16.5566 4.42969 14.7383 4.79883 13.002 5.53711C11.2656 6.27539 9.76855 7.27344 8.51074 8.53125C7.2666 9.77539 6.27539 11.2656 5.53711 13.002ZM5.02441 26.2295C3.64355 23.8506 2.95312 21.2598 2.95312 18.457C2.95312 15.6543 3.64355 13.0635 5.02441 10.6846C6.41895 8.30566 8.30566 6.42578 10.6846 5.04492C13.0635 3.65039 15.6543 2.95312 18.457 2.95312C21.2598 2.95312 23.8506 3.65039 26.2295 5.04492C28.6084 6.42578 30.4883 8.30566 31.8691 10.6846C33.2637 13.0635 33.9609 15.6543 33.9609 18.457C33.9609 21.2598 33.2637 23.8506 31.8691 26.2295C30.4883 28.6084 28.6084 30.4951 26.2295 31.8896C23.8506 33.2705 21.2598 33.9609 18.457 33.9609C15.6543 33.9609 13.0635 33.2705 10.6846 31.8896C8.30566 30.4951 6.41895 28.6084 5.02441 26.2295ZM2.80957 11.874C1.9209 13.9658 1.47656 16.1602 1.47656 18.457C1.47656 20.7539 1.9209 22.9551 2.80957 25.0605C3.71191 27.1523 4.92188 28.957 6.43945 30.4746C7.95703 31.9922 9.76172 33.2021 11.8535 34.1045C13.959 34.9932 16.1602 35.4375 18.457 35.4375C20.7539 35.4375 22.9482 34.9932 25.04 34.1045C27.1455 33.2021 28.957 31.9922 30.4746 30.4746C31.9922 28.957 33.1953 27.1523 34.084 25.0605C34.9863 22.9551 35.4375 20.7539 35.4375 18.457C35.4375 16.1602 34.9863 13.9658 34.084 11.874C33.1953 9.76855 31.9922 7.95703 30.4746 6.43945C28.957 4.92188 27.1455 3.71875 25.04 2.83008C22.9482 1.92773 20.7539 1.47656 18.457 1.47656C16.1602 1.47656 13.959 1.92773 11.8535 2.83008C9.76172 3.71875 7.95703 4.92188 6.43945 6.43945C4.92188 7.95703 3.71191 9.76855 2.80957 11.874ZM1.45605 25.6348C0.485352 23.3516 0 20.959 0 18.457C0 15.9551 0.485352 13.5693 1.45605 11.2998C2.44043 9.0166 3.75293 7.05469 5.39355 5.41406C7.04785 3.75977 9.00977 2.44727 11.2793 1.47656C13.5625 0.492188 15.9551 0 18.457 0C20.959 0 23.3447 0.492188 25.6143 1.47656C27.8975 2.44727 29.8594 3.75977 31.5 5.41406C33.1543 7.05469 34.4668 9.0166 35.4375 11.2998C36.4219 13.5693 36.9141 15.9551 36.9141 18.457C36.9141 20.959 36.4219 23.3516 35.4375 25.6348C34.4668 27.9043 33.1543 29.8662 31.5 31.5205C29.8594 33.1611 27.8975 34.4668 25.6143 35.4375C23.3447 36.4219 20.959 36.9141 18.457 36.9141C15.9551 36.9141 13.5625 36.4219 11.2793 35.4375C9.00977 34.4668 7.04785 33.1611 5.39355 31.5205C3.75293 29.8662 2.44043 27.9043 1.45605 25.6348Z" fill="white"/>
</svg>
