<svg width="32" height="36" viewBox="0 0 32 36" fill="none" xmlns="http://www.w3.org/2000/svg">
<path d="M14.1851 18.8162H16.8898C19.7566 18.8162 21.9133 19.3253 23.3597 20.3437C24.8125 21.3685 25.539 22.8311 25.539 24.7315C25.539 26.4892 24.6536 27.9389 22.8829 29.0804C21.1187 30.2155 18.5664 30.783 15.2261 30.783C12.9624 30.783 10.848 30.4912 8.88269 29.9074C6.9174 29.3237 5.28615 28.4999 3.98893 27.4362L2.65604 28.5064C4.11541 29.7712 5.94124 30.7539 8.13354 31.4543C10.3258 32.1484 12.69 32.4954 15.2261 32.4954C19.0269 32.4954 21.9814 31.756 24.0893 30.2771C26.1908 28.7983 27.2416 26.9498 27.2416 24.7315C27.2416 22.3576 26.3433 20.4928 24.5466 19.1372C22.75 17.7817 20.1653 17.1039 16.7925 17.1039H14.1851C11.3182 17.1039 9.15835 16.5947 7.70546 15.5764C6.25906 14.5516 5.53586 13.089 5.53586 11.1885C5.53586 9.43081 6.41797 7.98441 8.18219 6.84934C9.94641 5.70779 12.4987 5.13701 15.839 5.13701C18.1092 5.13701 20.2236 5.42889 22.1824 6.01263C24.1477 6.59638 25.779 7.42012 27.0762 8.48384L28.4091 7.41363C26.9497 6.14884 25.1239 5.1662 22.9316 4.4657C20.7393 3.77169 18.3751 3.42468 15.839 3.42468C12.0382 3.42468 9.087 4.1641 6.98551 5.64293C4.87752 7.12824 3.82353 8.97678 3.82353 11.1885C3.82353 13.5689 4.71861 15.4337 6.50878 16.7828C8.29894 18.1384 10.8577 18.8162 14.1851 18.8162Z" fill="white"/>
<path d="M14.1851 22.2408H16.8898C18.8226 22.2408 20.175 22.4289 20.9468 22.8051C21.7252 23.1878 22.1143 23.8299 22.1143 24.7315C22.1143 25.5098 21.5598 26.1422 20.4506 26.6287C19.3415 27.1216 17.6 27.3681 15.2261 27.3681C11.5225 27.3681 8.67837 26.687 6.69363 25.325L5.34128 26.366C6.46986 27.2416 7.8968 27.9129 9.6221 28.3799C11.3474 28.8469 13.2154 29.0804 15.2261 29.0804C18.0929 29.0804 20.2431 28.6718 21.6765 27.8545C23.1099 27.0373 23.8266 25.9963 23.8266 24.7315C23.8266 21.9295 21.4819 20.5285 16.7925 20.5285H14.1851C10.3194 20.5285 7.34224 19.6885 5.25371 18.0086C3.1587 16.3287 2.1112 14.0554 2.1112 11.1885C2.1112 8.48381 3.33059 6.22989 5.76936 4.42676C8.20813 2.61714 11.5647 1.71233 15.839 1.71233C18.6151 1.71233 21.2128 2.11122 23.6321 2.90901C26.0579 3.71329 28.0783 4.84187 29.6933 6.29476L31.0651 5.2732C29.2944 3.61276 27.0794 2.31878 24.4201 1.39127C21.7608 0.463754 18.9005 0 15.839 0C13.4197 0 11.2209 0.29836 9.24266 0.895081C7.2644 1.4918 5.63639 2.29932 4.35863 3.31764C3.08087 4.33596 2.10147 5.51967 1.42043 6.86877C0.745877 8.2114 0.4086 9.65131 0.4086 11.1885C0.4086 14.5483 1.60204 17.2303 3.98892 19.2345C6.38229 21.2387 9.78101 22.2408 14.1851 22.2408Z" fill="white"/>
<path d="M14.1851 15.3915H16.8898C20.7555 15.3915 23.7326 16.2314 25.8211 17.9113C27.9097 19.5912 28.9539 21.8646 28.9539 24.7315C28.9539 27.4362 27.7345 29.6933 25.2958 31.503C22.857 33.3061 19.5004 34.2077 15.2261 34.2077C12.4565 34.2077 9.85887 33.8088 7.43307 33.011C5.01375 32.2067 2.99658 31.0781 1.38154 29.6252L0 30.6468C1.7707 32.3072 3.98895 33.6012 6.65473 34.5287C9.31403 35.4562 12.1712 35.92 15.2261 35.92C17.6454 35.92 19.8475 35.6216 21.8322 35.0249C23.8105 34.4347 25.4352 33.6272 26.7065 32.6024C27.9843 31.584 28.9637 30.4003 29.6447 29.0512C30.3257 27.7086 30.6663 26.2687 30.6663 24.7315C30.6663 21.3717 29.4696 18.6897 27.0762 16.6855C24.6893 14.6877 21.2939 13.6889 16.8898 13.6889H14.1851C12.2522 13.6889 10.8966 13.4976 10.1183 13.1149C9.33998 12.7322 8.95081 12.0901 8.95081 11.1885C8.95081 10.4167 9.50537 9.78426 10.6145 9.29132C11.7236 8.79838 13.4651 8.5519 15.839 8.5519C19.5491 8.5519 22.3932 9.23294 24.3715 10.595L25.7239 9.55401C24.6018 8.68487 23.1781 8.0168 21.4528 7.5498C19.721 7.0828 17.8497 6.8493 15.839 6.8493C12.9787 6.8493 10.8318 7.25469 9.39835 8.06545C7.96493 8.8827 7.24821 9.92371 7.24821 11.1885C7.24821 13.9905 9.5605 15.3915 14.1851 15.3915Z" fill="white"/>
</svg>
