<svg width="31" height="36" viewBox="0 0 31 36" fill="none" xmlns="http://www.w3.org/2000/svg">
<path d="M15.4774 33.4876C13.5761 33.4876 11.6747 33.2396 9.77341 32.7436C7.87208 32.2476 6.09474 31.5656 4.44141 30.6976C2.82941 29.8296 1.46541 28.8376 0.349411 27.7216L6.73541 21.1496C7.72741 22.1416 8.90541 22.927 10.2694 23.5056C11.6747 24.0843 13.1421 24.3736 14.6714 24.3736C15.3741 24.3736 15.9114 24.291 16.2834 24.1256C16.6967 23.919 16.9034 23.6503 16.9034 23.3196C16.9034 22.741 16.5521 22.307 15.8494 22.0176C15.1881 21.7283 14.3201 21.4596 13.2454 21.2116C12.2121 20.9636 11.0961 20.6536 9.89741 20.2816C8.74008 19.8683 7.62408 19.331 6.54941 18.6696C5.47474 17.967 4.60674 17.0163 3.94541 15.8176C3.28408 14.5776 2.95341 13.007 2.95341 11.1056C2.95341 9.16297 3.49074 7.44764 4.56541 5.95963C5.68141 4.4303 7.23141 3.23163 9.21541 2.36363C11.2407 1.4543 13.5761 0.999634 16.2214 0.999634C18.9081 0.999634 21.5121 1.4543 24.0334 2.36363C26.5547 3.27297 28.5594 4.63697 30.0474 6.45563L23.5994 13.0276C22.5661 11.8703 21.4294 11.1056 20.1894 10.7336C18.9494 10.3203 17.9161 10.1136 17.0894 10.1136C16.3041 10.1136 15.7461 10.2376 15.4154 10.4856C15.1261 10.6923 14.9814 10.961 14.9814 11.2916C14.9814 11.7463 15.3121 12.1183 15.9734 12.4076C16.6347 12.697 17.4821 12.9656 18.5154 13.2136C19.5901 13.4616 20.7061 13.7923 21.8634 14.2056C23.0207 14.619 24.1161 15.1976 25.1494 15.9416C26.2241 16.6856 27.0921 17.6776 27.7534 18.9176C28.4147 20.1163 28.7454 21.687 28.7454 23.6296C28.7454 26.647 27.5467 29.0443 25.1494 30.8216C22.7521 32.599 19.5281 33.4876 15.4774 33.4876Z" fill="white"/>
<path d="M3.75516 5.37402C2.55002 7.04267 1.95343 8.96568 1.9534 11.1055C1.9534 13.1155 2.30186 14.8613 3.06277 16.2881L3.06668 16.2949L3.06961 16.3008L3.94559 15.8174C3.28429 14.5774 2.9534 13.0067 2.9534 11.1055C2.95343 9.1629 3.49111 7.4479 4.5657 5.95996C5.68168 4.43066 7.23118 3.23128 9.21512 2.36328C11.2403 1.454 13.5758 1.00005 16.221 1L16.7239 1.00488C19.2331 1.05814 21.6697 1.51076 24.0335 2.36328L24.3723 1.42285C21.742 0.474257 19.0229 0 16.221 0C13.465 4.93659e-05 10.9889 0.472868 8.81473 1.44727C6.69236 2.3758 4.99269 3.67835 3.75809 5.37012L3.75516 5.37402Z" fill="white"/>
<path d="M28.7688 18.7002L28.6292 18.4346L27.7532 18.918L27.8733 19.1465C28.4547 20.3139 28.7454 21.8085 28.7454 23.6299L28.7317 24.1885C28.5912 26.9443 27.3969 29.1551 25.1497 30.8213L24.6907 31.1445C22.3464 32.7067 19.2753 33.4872 15.4778 33.4873L14.7639 33.4756C13.1005 33.4213 11.4372 33.1771 9.77371 32.7432L9.52078 33.7109C11.5018 34.2277 13.4885 34.4873 15.4778 34.4873C19.6673 34.4872 23.1237 33.5686 25.7454 31.625C28.4002 29.6567 29.7453 26.9596 29.7454 23.6299C29.7454 21.7127 29.4414 20.0504 28.7688 18.7002Z" fill="white"/>
<path d="M29.4344 7.08063L23.5999 13.0274C22.5666 11.8701 21.4296 11.1055 20.1897 10.7334C18.9497 10.3201 17.9158 10.1133 17.0891 10.1133V11.1133C17.7646 11.1133 18.6832 11.2859 19.8733 11.6826L19.888 11.6875L19.9016 11.6914C20.835 11.9715 21.73 12.5292 22.5852 13.4092L23.5999 14.4239L24.3128 13.7276L30.1415 7.78778L29.4344 7.08063Z" fill="white"/>
<path d="M6.73563 21.1494C7.72762 22.1414 8.90581 22.9272 10.2698 23.5058C11.4994 24.0121 12.7764 24.297 14.1009 24.3603L14.6712 24.374V23.374C13.2751 23.374 11.9413 23.111 10.6604 22.5849C9.40795 22.0536 8.33879 21.3385 7.44266 20.4424L7.17313 20.1738L6.72041 19.7136L6.59598 19.8574L0 26.6462L0.707455 27.3536L6.73563 21.1494Z" fill="white"/>
</svg>
