<svg width="32" height="37" viewBox="0 0 32 37" fill="none" xmlns="http://www.w3.org/2000/svg">
<path d="M14.58 19.34H17.36C20.3066 19.34 22.5233 19.8634 24.01 20.91C25.5033 21.9634 26.25 23.4667 26.25 25.42C26.25 27.2267 25.34 28.7167 23.52 29.89C21.7066 31.0567 19.0833 31.64 15.65 31.64C13.3233 31.64 11.15 31.34 9.12998 30.74C7.10998 30.14 5.43331 29.2934 4.09998 28.2L2.72998 29.3C4.22998 30.6 6.10665 31.61 8.35998 32.33C10.6133 33.0434 13.0433 33.4 15.65 33.4C19.5566 33.4 22.5933 32.64 24.76 31.12C26.92 29.6 28 27.7 28 25.42C28 22.98 27.0766 21.0634 25.23 19.67C23.3833 18.2767 20.7266 17.58 17.26 17.58H14.58C11.6333 17.58 9.41331 17.0567 7.91998 16.01C6.43331 14.9567 5.68998 13.4534 5.68998 11.5C5.68998 9.69335 6.59665 8.20669 8.40998 7.04002C10.2233 5.86669 12.8466 5.28002 16.28 5.28002C18.6133 5.28002 20.7866 5.58002 22.8 6.18002C24.82 6.78002 26.4966 7.62669 27.83 8.72002L29.2 7.62002C27.7 6.32002 25.8233 5.31002 23.57 4.59002C21.3166 3.87669 18.8866 3.52002 16.28 3.52002C12.3733 3.52002 9.33998 4.28002 7.17998 5.80002C5.01331 7.32669 3.92998 9.22669 3.92998 11.5C3.92998 13.9467 4.84998 15.8634 6.68998 17.25C8.52998 18.6434 11.16 19.34 14.58 19.34Z" fill="white"/>
<path d="M14.58 22.86H17.36C19.3466 22.86 20.7367 23.0533 21.53 23.44C22.33 23.8333 22.73 24.4933 22.73 25.42C22.73 26.22 22.16 26.87 21.02 27.37C19.88 27.8767 18.09 28.13 15.65 28.13C11.8433 28.13 8.91998 27.43 6.87998 26.03L5.48998 27.1C6.64998 28 8.11665 28.69 9.88998 29.17C11.6633 29.65 13.5833 29.89 15.65 29.89C18.5966 29.89 20.8067 29.47 22.28 28.63C23.7533 27.79 24.49 26.72 24.49 25.42C24.49 22.54 22.08 21.1 17.26 21.1H14.58C10.6066 21.1 7.54665 20.2367 5.39998 18.51C3.24665 16.7833 2.16998 14.4467 2.16998 11.5C2.16998 8.72 3.42332 6.40333 5.92998 4.55C8.43665 2.69 11.8867 1.76 16.28 1.76C19.1333 1.76 21.8033 2.17 24.29 2.99C26.7833 3.81667 28.86 4.97667 30.52 6.47L31.93 5.42C30.11 3.71333 27.8333 2.38333 25.1 1.43C22.3666 0.476665 19.4267 0 16.28 0C13.7933 0 11.5333 0.306667 9.49998 0.92C7.46665 1.53333 5.79332 2.36333 4.47998 3.41C3.16665 4.45667 2.15998 5.67333 1.45998 7.06C0.76665 8.44 0.419983 9.92 0.419983 11.5C0.419983 14.9533 1.64665 17.71 4.09998 19.77C6.55998 21.83 10.0533 22.86 14.58 22.86Z" fill="white"/>
<path d="M14.58 15.82H17.36C21.3333 15.82 24.3933 16.6833 26.54 18.41C28.6867 20.1366 29.76 22.4733 29.76 25.42C29.76 28.2 28.5067 30.52 26 32.38C23.4933 34.2333 20.0433 35.16 15.65 35.16C12.8033 35.16 10.1333 34.75 7.64 33.93C5.15333 33.1033 3.08 31.9433 1.42 30.45L0 31.5C1.82 33.2066 4.1 34.5366 6.84 35.49C9.57333 36.4433 12.51 36.92 15.65 36.92C18.1367 36.92 20.4 36.6133 22.44 36C24.4733 35.3933 26.1433 34.5633 27.45 33.51C28.7633 32.4633 29.77 31.2466 30.47 29.86C31.17 28.48 31.52 27 31.52 25.42C31.52 21.9666 30.29 19.21 27.83 17.15C25.3767 15.0966 21.8867 14.07 17.36 14.07H14.58C12.5933 14.07 11.2 13.8733 10.4 13.48C9.6 13.0866 9.2 12.4266 9.2 11.5C9.2 10.7066 9.77 10.0566 10.91 9.54998C12.05 9.04331 13.84 8.78998 16.28 8.78998C20.0933 8.78998 23.0167 9.48998 25.05 10.89L26.44 9.81998C25.2867 8.92665 23.8233 8.23998 22.05 7.75998C20.27 7.27998 18.3467 7.03998 16.28 7.03998C13.34 7.03998 11.1333 7.45664 9.66 8.28998C8.18667 9.12998 7.45 10.2 7.45 11.5C7.45 14.38 9.82667 15.82 14.58 15.82Z" fill="white"/>
</svg>
