<svg width="32" height="37" viewBox="0 0 32 37" fill="none" xmlns="http://www.w3.org/2000/svg">
<path d="M16.2798 4.02002C18.8405 4.02002 21.2197 4.37051 23.4194 5.06689V5.06592C25.389 5.69541 27.0477 6.54819 28.4067 7.61475L27.8267 8.08154C26.4887 7.06098 24.8574 6.26942 22.9429 5.70068C20.8784 5.08544 18.6562 4.77979 16.2798 4.77979C13.0193 4.77981 10.4119 5.3005 8.50928 6.39404L8.13916 6.61963C6.21503 7.85767 5.18994 9.48894 5.18994 11.5005C5.19006 13.602 6.00167 15.2638 7.63135 16.4185L7.6333 16.4194C9.24807 17.5511 11.5884 18.0795 14.5796 18.0796H17.2603C20.6697 18.0796 23.203 18.7664 24.9292 20.0688C26.6428 21.3618 27.4995 23.1273 27.4995 25.4204C27.4994 27.5097 26.5236 29.2672 24.4731 30.7104C22.422 32.1494 19.5002 32.8999 15.6499 32.8999C13.0892 32.8999 10.71 32.5494 8.51025 31.853C6.54055 31.2234 4.88194 30.3709 3.52295 29.3042L4.10205 28.8384C5.44026 29.8593 7.07261 30.6504 8.98779 31.2192C11.0585 31.8343 13.2801 32.1401 15.6499 32.1401C18.9099 32.1401 21.5171 31.6228 23.4194 30.5356L23.7905 30.3101C25.7204 29.0659 26.7494 27.4325 26.7495 25.4204C26.7495 23.3178 25.9348 21.6558 24.2983 20.5015H24.2974C22.6887 19.369 20.351 18.8403 17.3599 18.8403H14.5796C11.2186 18.8403 8.71181 18.1536 6.9917 16.8511H6.99072C5.28497 15.5656 4.43029 13.8013 4.43018 11.5005C4.43018 9.41844 5.40922 7.65933 7.46826 6.2085L7.46729 6.20752C9.51144 4.7692 12.4296 4.02005 16.2798 4.02002Z" stroke="white"/>
<path d="M16.2803 0.5C19.3757 0.500035 22.2597 0.969048 24.9356 1.90234C27.392 2.75911 29.4563 3.92246 31.1407 5.38379L30.545 5.82715C28.8804 4.41135 26.844 3.31025 24.4473 2.51562H24.4464C21.905 1.67758 19.182 1.2598 16.2803 1.25977C11.8222 1.25977 8.25357 2.2031 5.6319 4.14844C3.01603 6.0828 1.66998 8.54079 1.66998 11.5C1.66998 14.5864 2.8067 17.0707 5.08698 18.8994C7.35435 20.7231 10.542 21.5996 14.5801 21.5996H17.2598C19.6363 21.5996 21.3358 21.9581 22.4258 22.6094C23.475 23.2363 23.9903 24.1503 23.9903 25.4199C23.9903 26.4852 23.4042 27.4131 22.0323 28.1953C20.6714 28.9712 18.5658 29.3896 15.6505 29.3896C13.6225 29.3896 11.7464 29.1546 10.0206 28.6875C8.56207 28.2927 7.33458 27.7554 6.32721 27.085L6.90436 26.6406C9.03926 27.9841 11.9723 28.6299 15.6505 28.6299C18.1044 28.6299 19.9811 28.3783 21.2208 27.8281C22.4288 27.2983 23.2296 26.5183 23.2296 25.4199C23.2295 24.8837 23.1136 24.3932 22.8575 23.9707C22.6008 23.5472 22.2229 23.2233 21.751 22.9912L21.7491 22.9902L21.5723 22.9111C20.655 22.5267 19.2263 22.3604 17.3604 22.3604H14.5801C10.1233 22.3604 6.76022 21.3456 4.42096 19.3867H4.42194C2.09141 17.4298 0.919983 14.8187 0.919983 11.5C0.919983 9.99637 1.24904 8.59365 1.90631 7.28516C2.57128 5.96792 3.53044 4.80623 4.79205 3.80078C6.04443 2.80279 7.65682 1.99803 9.64459 1.39844C11.6238 0.801454 13.8346 0.5 16.2803 0.5Z" stroke="white"/>
<path d="M16.2803 7.53998C18.3081 7.54 20.1872 7.77586 21.9199 8.2431V8.24213C23.3759 8.63628 24.5992 9.17006 25.6006 9.83392L25.0244 10.2783C22.8951 8.93541 19.9628 8.29001 16.2803 8.28998C13.8247 8.28998 11.9467 8.54181 10.707 9.09271C9.50199 9.62829 8.70021 10.4078 8.7002 11.4999C8.7002 12.0362 8.8162 12.5266 9.07227 12.9492C9.32905 13.3729 9.7076 13.6965 10.1797 13.9286C11.0922 14.3772 12.5889 14.5703 14.5801 14.5703H17.3604C21.8173 14.5703 25.1765 15.5813 27.5088 17.5331C29.8458 19.4902 31.0195 22.1017 31.0195 25.4199C31.0195 26.9229 30.688 28.3254 30.0244 29.6337L30.0234 29.6347C29.3585 30.9519 28.4002 32.1137 27.1387 33.1191L27.1357 33.121C25.8911 34.1242 24.2836 34.9277 22.2969 35.5204L22.2959 35.5214C20.3098 36.1185 18.096 36.4198 15.6504 36.4199C12.5617 36.4199 9.68095 35.9509 7.00488 35.0175H7.00391C4.54185 34.1608 2.4746 32.9979 0.790039 31.537L1.39355 31.0908C3.05787 32.5071 5.0911 33.6093 7.48242 34.4042L7.4834 34.4052C10.0312 35.2431 12.7551 35.6601 15.6504 35.6601C20.1078 35.66 23.6754 34.7203 26.2969 32.7822L26.2979 32.7812C28.9136 30.8402 30.2598 28.3792 30.2598 25.4199C30.2597 22.334 29.1272 19.8493 26.8535 18.0204C24.5862 16.1967 21.3984 15.3203 17.3604 15.3203H14.5801C12.2376 15.3203 10.5638 14.9623 9.49121 14.3124C8.45912 13.687 7.9502 12.7727 7.9502 11.4999C7.95021 10.4352 8.53466 9.50652 9.90527 8.72455L9.90625 8.72552C11.2678 7.95543 13.3713 7.53998 16.2803 7.53998Z" stroke="white"/>
</svg>
