<svg width="44" height="47" viewBox="0 0 44 47" fill="none" xmlns="http://www.w3.org/2000/svg">
<path d="M0.675087 39.0631C3.0621 41.2474 6.05243 42.9497 9.64608 44.1698C13.231 45.3899 17.0826 46 21.2008 46C24.4622 46 27.4307 45.6075 30.1062 44.8225C32.773 44.0461 34.9633 42.9838 36.6771 41.6357C38.3996 40.2961 39.7199 38.7389 40.638 36.9642C41.556 35.198 42.0151 33.3038 42.0151 31.2816C42.0151 26.8618 40.4019 23.3336 37.1755 20.6971C33.9578 18.0691 29.3805 16.7551 23.4436 16.7551H19.7975C17.1919 16.7551 15.3644 16.5034 14.3152 16C13.2659 15.4966 12.7413 14.6519 12.7413 13.4659C12.7413 12.4505 13.4889 11.6186 14.9841 10.9701C16.4792 10.3217 18.8269 9.99744 22.0271 9.99744C27.0285 9.99744 30.8626 10.8933 33.5294 12.6852" stroke="white" stroke-width="2"/>
<path d="M4.25562 36.2475C6.22294 37.9113 8.68428 39.2039 11.6396 40.1254C14.595 41.0384 17.782 41.4949 21.2008 41.4949C26.3246 41.4949 30.3073 40.5222 33.149 38.5768C35.982 36.6314 37.3984 34.1997 37.3984 31.2816C37.3984 28.1587 36.1874 25.7056 33.7654 23.9224C31.3435 22.1391 27.8591 21.2475 23.3124 21.2475H19.7975C15.9328 21.2475 13.0211 20.5777 11.0625 19.2381C9.11272 17.8899 8.1378 15.9659 8.1378 13.4659C8.1378 11.1536 9.32693 9.25086 11.7052 7.75769C14.0835 6.25598 17.5241 5.50513 22.0271 5.50513C25.0874 5.50513 27.9378 5.88909 30.5784 6.657C33.2277 7.42492 35.4267 8.50854 37.1755 9.90786" stroke="white" stroke-width="2"/>
<path d="M7.87549 33.4317C9.39688 34.5836 11.3205 35.4667 13.6463 36.0811C15.9721 36.6954 18.4903 37.0026 21.2008 37.0026C25.0655 37.0026 27.964 36.465 29.8964 35.3899C31.8287 34.3149 32.7949 32.9454 32.7949 31.2816C32.7949 27.5956 29.6341 25.7526 23.3124 25.7526H19.7975C14.5862 25.7526 10.5729 24.6476 7.75745 22.4377C4.93325 20.2278 3.52115 17.2372 3.52115 13.4659C3.52115 9.90785 5.16496 6.94283 8.45257 4.57082C11.7402 2.19027 16.265 1 22.0271 1C25.7694 1 29.2712 1.52475 32.5326 2.57423C35.8027 3.63226 38.5264 5.1169 40.7035 7.02816" stroke="white" stroke-width="2"/>
</svg>
