<svg width="36" height="36" viewBox="0 0 36 36" fill="none" xmlns="http://www.w3.org/2000/svg">
<path d="M35.16 0H33.4L22.34 23.29V35.15H24.1V23.29L35.16 0Z" fill="white"/>
<path d="M31.64 0H29.89L18.83 23.29V35.15H20.58V23.29L31.64 0Z" fill="white"/>
<path d="M28.13 0H26.37L15.31 23.29V35.15H17.07V23.29L28.13 0Z" fill="white"/>
<path d="M24.61 0H22.85L12.65 21.51L1.76 0H0L11.79 23.29V35.15H13.55V23.29L24.61 0Z" fill="white"/>
<path d="M5.30001 0H3.54001L13.14 18.5L14.02 16.57L5.30001 0Z" fill="white"/>
<path d="M8.84 0H7.06L14.87 14.65L15.77 12.72L8.84 0Z" fill="white"/>
<path d="M12.38 0H10.62L16.65 10.81L17.53 8.88L12.38 0Z" fill="white"/>
</svg>
