<svg width="36" height="36" viewBox="0 0 36 36" fill="none" xmlns="http://www.w3.org/2000/svg">
<path d="M34.3683 0.5L23.6486 23.0752L23.5998 23.1777V34.6504H22.84V23.4014L33.716 0.5H34.3683Z" stroke="white"/>
<path d="M30.8486 0.5L20.1288 23.0752L20.08 23.1777V34.6504H19.33V23.4014L30.206 0.5H30.8486Z" stroke="white"/>
<path d="M27.3383 0.5L16.6186 23.0752L16.5698 23.1777V34.6504H15.81V23.4014L26.686 0.5H27.3383Z" stroke="white"/>
<path d="M12.29 23.1709L12.2363 23.0645L0.813477 0.5H1.45215L12.2041 21.7363L12.665 22.6455L13.1016 21.7246L23.166 0.5H23.8184L13.0986 23.0752L13.0498 23.1777V34.6504H12.29V23.1709Z" stroke="white"/>
<path d="M4.99802 0.5L13.4629 16.5859L13.1103 17.3584L4.36227 0.5H4.99802Z" stroke="white"/>
<path d="M8.54242 0.5L15.2094 12.7373L14.8393 13.5303L7.89301 0.5H8.54242Z" stroke="white"/>
<path d="M12.0917 0.5L16.9677 8.90723L16.6044 9.70312L11.4716 0.5H12.0917Z" stroke="white"/>
</svg>
